<svg width="437" height="169" viewBox="0 0 437 169" fill="none" xmlns="http://www.w3.org/2000/svg">
<path d="M104.868 53.5204C104.868 82.2529 81.5761 106.683 52.8436 106.683C24.111 106.683 0.81872 82.2529 0.81872 53.5204C0.81872 24.7878 24.111 1.4955 52.8436 1.4955C81.5761 1.4955 104.868 24.7878 104.868 53.5204Z" fill="white"/>
<path d="M53.0086 0.534848C82.2836 0.534848 106.018 24.3044 106.02 53.6234C106.02 81.4701 84.6126 104.304 57.3811 106.531L56.0748 87.3219L56.7385 85.6466L70.9732 71.0725C71.6556 72.2567 72.9319 73.0582 74.3976 73.0582C76.3883 73.0582 78.0299 71.5818 78.3055 69.6658L92.4497 68.2163C92.8685 69.9551 94.4255 71.2476 96.2883 71.2476C98.4708 71.2476 100.241 69.4756 100.241 67.2894C100.241 65.3444 98.8394 63.7318 96.9944 63.3977L97.2704 47.3263C98.7531 47.2586 99.9352 46.0786 99.9356 44.5336C99.9356 42.9883 98.6833 41.7331 97.1405 41.7331C96.5847 41.7331 96.0679 41.8979 95.6325 42.1789L86.2987 29.4842C87.3414 28.3157 87.5921 26.5732 86.7897 25.125C85.7761 23.2945 83.4728 22.6312 81.6448 23.6465C81.2982 23.8387 80.9965 24.0786 80.737 24.3501L72.6509 17.3469C72.7651 17.0443 72.8286 16.716 72.8286 16.3727C72.8286 14.8274 71.5763 13.5722 70.0334 13.5722C68.9638 13.5722 68.0382 14.1732 67.5671 15.0561L56.7203 12.9375C56.4953 11.6155 55.3414 10.6094 53.967 10.6094C52.5931 10.6094 51.4525 11.6043 51.2196 12.9164L40.277 15.0561C39.8058 14.1745 38.8761 13.5722 37.8081 13.5722C36.2652 13.5722 35.0125 14.8274 35.0125 16.3727C35.0125 16.716 35.0781 17.0422 35.1906 17.3469L27.107 24.3501C26.8471 24.0782 26.5416 23.8387 26.1963 23.6465C24.3687 22.6333 22.0654 23.2945 21.0518 25.125C20.2515 26.5732 20.5002 28.3157 21.5429 29.4842L12.2116 42.1789C11.7756 41.8975 11.2571 41.7331 10.701 41.7331C9.15802 41.7331 7.90565 43.0311 7.90565 44.5336C7.90619 46.0358 9.08833 47.2586 10.571 47.3263L10.8524 63.6658C9.46086 64.2797 8.4897 65.6735 8.4897 67.2923C8.49003 69.4777 10.258 71.2497 12.4399 71.2505C14.2717 71.2505 15.8095 69.9991 16.2573 68.3064L29.536 69.6682C29.8116 71.5842 31.4532 73.0582 33.444 73.0582C34.5439 73.0582 35.538 72.6095 36.2553 71.8823L50.1815 86.8786L48.8836 106.555C21.5358 104.446 0 82.9437 0 53.6234C0.000498757 24.3032 23.7328 0.535348 53.0086 0.534848Z" fill="#FE414D"/>
<path d="M67.1214 57.791C67.7436 58.1986 68.4862 58.4385 69.2848 58.4385C69.6646 58.4385 70.0323 58.3829 70.3814 58.282L72.7598 65.4973C71.3942 66.1208 70.4424 67.4993 70.4424 69.0998C70.4424 69.1384 70.4474 69.1782 70.4474 69.2169L55.6877 80.6663L55.3635 67.4565L67.1214 57.791Z" fill="#FE414D"/>
<path d="M51.0832 67.4069L50.3929 80.5873L37.2096 70.3058C37.3316 69.9252 37.3956 69.5201 37.3956 69.1004C37.3951 67.4995 36.4463 66.1239 35.0807 65.5009L37.5653 57.9668C38.6022 57.9627 39.5448 57.5551 40.2467 56.8968L51.0832 67.4069Z" fill="#FE414D"/>
<path d="M20.7826 54.7379C21.482 55.2111 22.3242 55.4887 23.2328 55.4892C23.9326 55.4892 24.5967 55.3227 25.1841 55.0297L31.3268 65.7602C30.2239 66.4609 29.4897 67.6941 29.4897 69.0995C29.4901 69.1689 29.4938 69.2365 29.498 69.3042L16.3332 67.9556C16.37 67.7381 16.3916 67.5164 16.3916 67.289C16.3916 65.7229 15.4819 64.3747 14.1643 63.7318L20.7826 54.7379Z" fill="#FE414D"/>
<path d="M93.8997 64.1362C92.9479 64.8605 92.3336 66.0011 92.3336 67.2899C92.3336 67.4858 92.3515 67.678 92.3785 67.866L78.3381 69.3051C78.3397 69.2375 78.3484 69.1702 78.3484 69.1005C78.3484 67.695 77.6146 66.4639 76.5113 65.7612L82.6544 55.0306C83.2414 55.3236 83.9017 55.4901 84.6028 55.4901C85.4907 55.4901 86.3154 55.2249 87.0053 54.7708L93.8997 64.1362Z" fill="#FE414D"/>
<path d="M65.9609 52.3466C65.5674 52.9622 65.3341 53.6948 65.3341 54.4809C65.3345 55.7345 65.9177 56.8506 66.8263 57.5766L55.3527 67.0059L54.8908 48.0858C55.408 47.8355 55.8666 47.4802 56.2286 47.0398L65.9609 52.3466Z" fill="#FE414D"/>
<path d="M50.7025 47.6027C51.1043 47.926 51.5692 48.1693 52.0777 48.3171L51.1085 66.9316L40.4949 56.6369C41.1188 55.9383 41.5011 55.0189 41.5011 54.0061C41.5011 53.5632 41.4247 53.1349 41.289 52.7372L50.7025 47.6027Z" fill="#FE414D"/>
<path d="M33.6021 54.2289C33.7109 56.1952 35.25 57.7754 37.1942 57.948L34.7465 65.3655C34.3376 65.2219 33.8997 65.1397 33.4431 65.1397C32.7902 65.1397 32.1751 65.3011 31.6326 65.5805L25.4948 54.8582C26.1262 54.4738 26.6537 53.9342 27.024 53.2917L33.6021 54.2289Z" fill="#FE414D"/>
<path d="M80.8104 53.2917C81.1807 53.9342 81.7078 54.4738 82.3395 54.8582L76.2018 65.5805C75.7946 65.3709 75.348 65.2297 74.8744 65.1716L74.3941 65.1397C73.9367 65.1397 73.4992 65.2219 73.0904 65.3655L70.7145 58.166C72.1897 57.5911 73.2365 56.1599 73.2365 54.4784C73.2365 54.4419 73.2311 54.4062 73.2311 54.3697L80.8104 53.2917Z" fill="#FE414D"/>
<path d="M94.8405 46.1243C95.3037 46.7958 96.055 47.2541 96.9138 47.3242L96.6378 63.3479C96.5232 63.3383 96.4029 63.3321 96.2846 63.3321C95.5578 63.3321 94.8791 63.5301 94.2939 63.8734L87.3861 54.4893C88.3591 53.6853 88.9788 52.4679 88.9788 51.1073C88.9788 50.6432 88.9082 50.1937 88.7746 49.7744L94.8405 46.1243Z" fill="#FE414D"/>
<path d="M19.0627 49.7769C18.929 50.1966 18.8585 50.6457 18.8585 51.1097C18.8589 52.4911 19.4989 53.7227 20.4964 54.5263L13.8278 63.587C13.3962 63.4243 12.9296 63.3321 12.442 63.3321C12.0102 63.3321 11.5943 63.4031 11.205 63.5309L10.9236 47.3242C11.7821 47.2541 12.531 46.7958 12.9942 46.1243L19.0627 49.7769Z" fill="#FE414D"/>
<path d="M81.5246 47.998C80.726 48.792 80.232 49.8941 80.232 51.1094C80.232 51.7711 80.3794 52.397 80.6409 52.9598L73.2102 54.0162C73.0495 52.6477 72.1924 51.4975 71.0044 50.921L72.4086 37.5571H72.4406C72.9756 37.5571 73.4758 37.4031 73.9004 37.1433L81.5246 47.998Z" fill="#FE414D"/>
<path d="M33.9426 37.1433C34.3672 37.4031 34.8649 37.5571 35.3999 37.5571H35.4319L36.7539 50.1273C34.9969 50.486 33.6657 52.0147 33.6001 53.8651L27.2021 52.9569C27.4636 52.3945 27.611 51.7681 27.611 51.1069C27.611 49.8916 27.117 48.7896 26.3184 47.9955L33.9426 37.1433Z" fill="#FE414D"/>
<path d="M49.4223 43.2779C49.2945 43.6681 49.2231 44.0819 49.2231 44.5149C49.2231 45.5829 49.6485 46.5475 50.333 47.2598L41.1079 52.293C40.4699 50.9656 39.1151 50.0474 37.5453 50.0474C37.3958 50.0474 37.2472 50.0557 37.102 50.0711L35.7824 37.525C36.3731 37.4436 36.904 37.1788 37.317 36.7869L49.4223 43.2779Z" fill="#FE414D"/>
<path d="M70.5182 36.7894C70.9312 37.1816 71.4642 37.4485 72.0552 37.5299L70.6614 50.7742C70.233 50.6131 69.7686 50.5222 69.2838 50.5222C68.1726 50.5222 67.171 50.9821 66.4538 51.7218L66.1644 52.0539L56.4429 46.7525C56.8771 46.1178 57.1303 45.3483 57.1307 44.5198C57.1307 44.3417 57.1166 44.1641 57.0933 43.9914L70.5182 36.7894Z" fill="#FE414D"/>
<path d="M80.1778 28.8117C81.1304 30.5185 83.2108 31.2034 84.9699 30.4471L85.3148 30.277C85.5859 30.1259 85.8287 29.9449 86.0475 29.7436L95.3444 42.3906C94.7358 42.9028 94.3465 43.6732 94.3461 44.5328C94.3461 44.9964 94.4602 45.4335 94.6595 45.8175L88.6516 49.4332C87.9966 47.8435 86.4318 46.7228 84.6059 46.7228C83.5325 46.7232 82.5483 47.1129 81.7867 47.7555L74.1916 36.9377C74.8287 36.4234 75.2376 35.6385 75.2376 34.7557C75.2376 34.16 75.0491 33.6088 74.7333 33.1547L80.1778 28.8117Z" fill="#FE414D"/>
<path d="M33.1061 33.1529C32.7902 33.607 32.6018 34.1603 32.6018 34.7563C32.6022 35.6392 33.0102 36.4262 33.6478 36.9384L26.0502 47.7536C25.2885 47.1115 24.3069 46.7238 23.2335 46.7234C21.408 46.7234 19.8452 47.84 19.1877 49.4314L13.1801 45.8181C13.3796 45.4342 13.4932 44.9971 13.4934 44.5335C13.4934 43.6734 13.1058 42.903 12.4952 42.3883L21.7919 29.7414C22.0111 29.9435 22.2535 30.1265 22.5245 30.2776C24.3484 31.2892 26.6433 30.63 27.6615 28.8099L33.1061 33.1529Z" fill="#FE414D"/>
<path d="M69.6801 34.3234C69.6589 34.4649 69.6431 34.6114 69.6431 34.7588C69.6431 35.4262 69.8776 36.0376 70.267 36.5191L57.0252 43.6228C56.6686 42.0853 55.4192 40.8924 53.8527 40.6205L53.9856 33.7605C55.3611 33.7506 56.498 32.744 56.7172 31.4245L69.6801 34.3234Z" fill="#FE414D"/>
<path d="M51.2511 31.6212C51.5205 32.7411 52.4644 33.5995 53.6295 33.7394L53.4996 40.5753C53.3929 40.5674 53.2867 40.5566 53.1783 40.5566C51.5541 40.5566 50.1591 41.5403 49.5518 42.9433L37.5685 36.5191C37.9583 36.0376 38.1924 35.4242 38.1924 34.7563C38.1924 34.6226 38.1828 34.4902 38.1633 34.3607L51.2511 31.6212Z" fill="#FE414D"/>
<path d="M35.3409 17.6896C35.7531 18.4604 36.5151 19.017 37.4142 19.1444L37.8073 19.1735C38.5943 19.1735 39.3061 18.8476 39.8142 18.3213L52.0971 28.8896C51.5314 29.4022 51.1711 30.1386 51.1707 30.9629C51.1707 31.0679 51.1778 31.173 51.1894 31.2738L38.0912 34.0133C37.7633 32.8299 36.6837 31.9616 35.3994 31.9612C34.5796 31.9612 33.8429 32.3153 33.3315 32.8798L27.823 28.4862C28.3962 27.182 28.1796 25.6964 27.337 24.621L35.3409 17.6896Z" fill="#FE414D"/>
<path d="M80.5041 24.6179C79.6611 25.6934 79.4419 27.1785 80.0156 28.4831L74.5071 32.8792C73.9953 32.3164 73.261 31.9581 72.4392 31.9581C71.1661 31.9581 70.0973 32.8111 69.7582 33.9754L56.7555 31.0661C56.7571 31.0317 56.7604 30.9972 56.7604 30.9624C56.7604 30.3763 56.5811 29.8334 56.2748 29.383L68.1199 18.4113C68.62 18.8807 69.2912 19.1729 70.0313 19.1729C71.1014 19.1729 72.0291 18.5698 72.5002 17.6865L80.5041 24.6179Z" fill="#FE414D"/>
<path d="M67.418 15.3913C67.3034 15.6981 67.2374 16.0281 67.2374 16.3734C67.2374 17.0492 67.4752 17.6714 67.8745 18.1545L56.0531 29.1051C55.5671 28.5601 54.8727 28.206 54.094 28.1708L54.3223 16.185L54.3252 16.1821C55.6995 16.0077 56.7646 14.8331 56.7646 13.4081C56.7646 13.3741 56.7596 13.3413 56.7592 13.3072L67.418 15.3913Z" fill="#FE414D"/>
<path d="M51.1699 13.4128C51.1699 14.9577 52.4226 16.2104 53.965 16.2109L53.7367 28.1755C53.2328 28.2161 52.7667 28.3896 52.3749 28.6611L52.3778 28.6665L40.0442 18.053C40.3928 17.5852 40.6016 17.0045 40.6016 16.3752C40.6012 16.0282 40.5352 15.6995 40.4211 15.3932L51.1749 13.2908C51.1732 13.3294 51.1699 13.3722 51.1699 13.4128Z" fill="#FE414D"/>
<path fill-rule="evenodd" clip-rule="evenodd" d="M215.555 4.77773C216.582 4.77773 217.417 3.94234 217.417 2.91581C217.417 1.88924 216.582 1.05386 215.555 1.05386C214.529 1.05386 213.693 1.88924 213.693 2.91581C213.693 3.94234 214.529 4.77773 215.555 4.77773Z" fill="white"/>
<path fill-rule="evenodd" clip-rule="evenodd" d="M214.1 33.045H217.008V8.30842H214.1V33.045Z" fill="white"/>
<path fill-rule="evenodd" clip-rule="evenodd" d="M156.161 20.6107C156.161 15.4322 160.22 11.2171 165.209 11.2171C170.198 11.2171 174.257 15.4322 174.257 20.6107V20.9971C174.064 26.1047 170.09 30.1039 165.209 30.1039C160.22 30.1039 156.161 25.8448 156.161 20.6107ZM165.209 33.0141C168.725 33.0141 171.984 31.4617 174.257 28.73V33.0427H177.166V8.30781H174.257V12.5441C172.003 9.84318 168.744 8.30781 165.209 8.30781C158.616 8.30781 153.252 13.8267 153.252 20.6111C153.252 27.4512 158.616 33.0141 165.209 33.0141Z" fill="white"/>
<path fill-rule="evenodd" clip-rule="evenodd" d="M196.773 30.1039C191.895 30.1039 187.921 26.1047 187.726 20.9971V20.6107C187.726 15.4322 191.784 11.2171 196.773 11.2171C201.763 11.2171 205.821 15.4322 205.821 20.6107C205.821 25.8448 201.763 30.1039 196.773 30.1039ZM208.731 20.6111C208.731 13.8267 203.367 8.30781 196.773 8.30781C193.239 8.30781 189.979 9.84277 187.725 12.5441V8.30781H184.816V41.9602H187.725V28.7296C189.998 31.4617 193.26 33.0136 196.773 33.0136C203.367 33.0136 208.731 27.4508 208.731 20.6111Z" fill="white"/>
<path fill-rule="evenodd" clip-rule="evenodd" d="M263.147 8.30781C260.383 8.30781 257.77 9.43599 255.877 11.4221V8.30781H253.067V33.0448H255.877V18.3938C255.975 14.4099 259.234 11.1677 263.147 11.1677C267.129 11.1677 270.366 14.4061 270.366 18.388V33.0448H273.225V18.388C273.225 12.8288 268.704 8.30781 263.147 8.30781Z" fill="white"/>
<path fill-rule="evenodd" clip-rule="evenodd" d="M288.268 30.2268L287.979 30.3052C287.702 30.3816 287.234 30.4717 286.567 30.4717C285.397 30.4717 284.896 29.7299 284.896 27.9903V11.1486H288.329V8.30819H284.896V0H281.918V8.30819H278.467V11.1486H281.918V28.0763C281.918 29.9362 282.252 31.1482 282.965 31.8879C283.627 32.645 284.642 33.0447 285.898 33.0447C286.842 33.0447 287.679 32.9148 288.253 32.6778L288.414 32.6106L288.268 30.2268Z" fill="white"/>
<path fill-rule="evenodd" clip-rule="evenodd" d="M235.223 11.1977C239.486 11.1977 243.145 14.2813 244.024 18.5691H226.28C227.253 14.2141 230.891 11.1977 235.223 11.1977ZM242.806 25.9272C241.22 28.5538 238.318 30.1863 235.223 30.1863C230.413 30.1863 226.448 26.3381 226.091 21.3796H245.7C246.501 21.3796 247.13 20.7964 247.13 20.0489V19.833C246.618 13.2798 241.499 8.33827 235.223 8.33827C228.603 8.33827 223.216 13.9032 223.216 20.7408C223.216 27.5252 228.603 33.0445 235.223 33.0445C239.266 33.0445 242.988 30.9646 245.19 27.4812L242.806 25.9272Z" fill="white"/>
<path fill-rule="evenodd" clip-rule="evenodd" d="M146.553 21.105C146.553 21.105 145.798 20.5164 144.982 20.174C144.165 19.8303 142.997 19.4327 140.573 18.8399C140.243 18.7594 139.923 18.6926 139.621 18.6141C138 18.209 136.719 17.6624 135.817 16.9875C134.921 16.2133 134.586 15.5729 134.624 14.7033C134.664 13.7835 135.215 12.8927 136.177 12.1892C137.272 11.3806 138.868 10.9771 140.675 11.0556C142.724 11.1457 144.284 12.1701 145.966 13.3974L146.127 13.5162L148.243 11.547C147.987 11.3063 147.937 11.266 147.232 10.7804C145.569 9.65636 143.529 8.4655 140.793 8.34679C138.413 8.24177 136.289 8.72907 134.647 9.75764C132.868 10.9639 131.741 12.7188 131.719 14.575C131.7 15.961 131.986 17.2589 133.37 18.5913C135.026 20.1856 137.597 21.0249 139.954 21.4798C141.973 21.87 143.84 22.6171 144.777 23.3971C145.899 24.4256 146.297 25.1732 146.297 26.2437C146.253 27.2702 145.582 28.2489 144.439 28.9429C143.292 29.8013 141.651 30.2504 139.939 30.1761C137.685 30.0765 135.353 29.0957 133.005 27.2569L132.843 27.1286L130.769 29.0309L130.975 29.2106C133.709 31.5695 136.681 32.8559 139.813 33.0319C142.158 33.1352 144.204 32.5769 146.071 31.3267C148.004 29.9906 149.071 28.2759 149.155 26.3699C149.243 24.3414 148.247 22.3249 146.553 21.105Z" fill="white"/>
<path d="M332.221 63.7877H344.054V105.804H332.221V63.7877ZM331.106 50.9078C331.106 47.0493 334.279 43.8764 338.138 43.8764C341.996 43.8764 345.169 47.0493 345.169 50.9078C345.169 54.7664 341.996 57.9393 338.138 57.9393C334.279 57.9393 331.106 54.7664 331.106 50.9078Z" fill="white"/>
<path d="M191.2 84.6233C191.2 91.3119 196.43 96.5423 203.033 96.5423C209.55 96.5423 214.952 91.2259 214.952 84.7951C214.952 78.4494 209.55 73.0476 203.033 73.0476C196.688 73.0476 191.2 78.4494 191.2 84.6233ZM180.323 84.4519C180.323 73.1796 189.228 62.4146 203.119 62.4146C215.535 62.4146 225.743 71.6754 225.743 84.7092C225.743 96.8598 216.925 107.089 202.862 107.089C188.542 107.089 180.323 95.7241 180.323 84.4519Z" fill="white"/>
<path d="M295.157 69.2752C298.501 64.7305 302.874 62.4148 308.276 62.4148C314.278 62.4148 318.137 64.6446 320.966 68.1599C323.196 70.9894 323.882 74.7633 323.882 79.3935V105.804H312.05V82.7365C312.049 75.2772 309.904 72.4468 304.074 72.4468C298.072 72.4472 295.157 76.3925 295.157 84.2806V105.804H283.323V43.8795H295.157V69.2752Z" fill="white"/>
<path fill-rule="evenodd" clip-rule="evenodd" d="M142.688 67.5607C159.084 56.5795 175.773 70.0994 175.773 84.7068C175.773 96.539 167.178 104.717 156.751 105.801C151.178 105.801 146.289 104.857 142.688 100.312V105.801H130.854V43.8764H142.688V67.5607ZM153.964 73.0443C147.276 73.0443 142.132 78.447 142.132 84.7914C142.132 91.1367 147.448 96.539 153.964 96.539C160.481 96.539 165.712 91.0516 165.712 84.8778C165.711 78.3615 160.652 73.0443 153.964 73.0443Z" fill="white"/>
<path fill-rule="evenodd" clip-rule="evenodd" d="M262.968 67.5638C246.572 56.5821 229.882 70.102 229.882 84.7094C229.883 96.542 238.478 104.72 248.905 105.804C254.478 105.804 259.367 104.86 262.968 100.315V105.804H274.802V43.8795H262.968V67.5638ZM251.757 73.047C258.445 73.0474 263.589 78.4496 263.59 84.7945C263.59 91.1398 258.274 96.5416 251.757 96.542C245.24 96.542 240.009 91.0547 240.009 84.8808C240.01 78.3641 245.069 73.047 251.757 73.047Z" fill="white"/>
<path d="M135.818 157.071V164.042H137.958C141.29 164.042 142.604 162.513 142.604 160.587C142.604 158.661 141.381 157.071 137.591 157.071H135.818ZM135.818 147.472V154.167H136.918C139.425 154.167 140.648 153.005 140.648 150.774C140.648 148.603 139.394 147.472 137.04 147.472H135.818ZM132.332 167.313V144.262H135.818C137.346 144.262 138.569 144.384 139.486 144.629C142.268 145.363 143.949 147.931 143.949 150.713C143.949 152.363 143.338 153.77 142.054 154.901C144.5 155.757 146.028 157.988 146.028 160.709C146.028 162.513 145.386 164.072 144.133 165.295C142.513 166.885 140.862 167.313 137.621 167.313H132.332Z" fill="#FE414D"/>
<path d="M153.146 144.262H156.631V158.141C156.631 162.972 158.924 164.469 161.675 164.469C164.426 164.469 166.75 162.972 166.75 158.141V144.262H170.204V159.089C170.204 164.347 166.291 167.741 161.675 167.741C157.059 167.741 153.146 164.347 153.146 159.089V144.262Z" fill="#FE414D"/>
<path d="M191.551 147.686L188.708 149.367C187.638 147.564 186.904 147.105 185.284 147.105C183.419 147.105 181.921 148.298 181.921 149.948C181.921 151.11 182.746 151.966 184.428 152.669L186.72 153.617C190.45 155.176 192.131 157.194 192.131 160.373C192.131 164.683 188.83 167.741 184.703 167.741C180.698 167.741 177.977 165.295 177.366 160.954L180.881 160.19C181.248 163.552 182.716 164.469 184.856 164.469C187.057 164.469 188.616 162.849 188.616 160.618C188.616 158.844 187.668 157.652 185.345 156.704L183.113 155.787C179.934 154.473 178.375 152.486 178.375 149.918C178.375 146.433 181.493 143.804 185.314 143.804C187.974 143.804 190.053 145.118 191.551 147.686Z" fill="#FE414D"/>
<path d="M199.071 144.262H202.556V167.313H199.071V144.262Z" fill="#FE414D"/>
<path d="M214.324 167.313H210.839V142.703L227.653 160.281V144.262H231.138V168.719L214.324 151.171V167.313Z" fill="#FE414D"/>
<path d="M252.102 144.262V147.533H242.869V153.067H251.857V156.338H242.869V164.042H252.102V167.313H239.384V144.262H252.102Z" fill="#FE414D"/>
<path d="M272.475 147.686L269.632 149.367C268.562 147.564 267.828 147.105 266.208 147.105C264.343 147.105 262.845 148.298 262.845 149.948C262.845 151.11 263.671 151.966 265.352 152.669L267.645 153.617C271.374 155.176 273.056 157.194 273.056 160.373C273.056 164.683 269.754 167.741 265.627 167.741C261.622 167.741 258.902 165.295 258.29 160.954L261.806 160.19C262.173 163.552 263.64 164.469 265.78 164.469C267.981 164.469 269.54 162.849 269.54 160.618C269.54 158.844 268.593 157.652 266.269 156.704L264.037 155.787C260.858 154.473 259.299 152.486 259.299 149.918C259.299 146.433 262.417 143.804 266.239 143.804C268.898 143.804 270.977 145.118 272.475 147.686Z" fill="#FE414D"/>
<path d="M293.049 147.686L290.206 149.367C289.136 147.564 288.403 147.105 286.782 147.105C284.918 147.105 283.42 148.298 283.42 149.948C283.42 151.11 284.245 151.966 285.926 152.669L288.219 153.617C291.949 155.176 293.63 157.194 293.63 160.373C293.63 164.683 290.329 167.741 286.202 167.741C282.197 167.741 279.476 165.295 278.865 160.954L282.38 160.19C282.747 163.552 284.214 164.469 286.354 164.469C288.556 164.469 290.115 162.849 290.115 160.618C290.115 158.844 289.167 157.652 286.844 156.704L284.612 155.787C281.433 154.473 279.873 152.486 279.873 149.918C279.873 146.433 282.992 143.804 286.813 143.804C289.473 143.804 291.551 145.118 293.049 147.686Z" fill="#FE414D"/>
<path d="M325.809 147.686L322.966 149.367C321.896 147.564 321.162 147.105 319.542 147.105C317.677 147.105 316.179 148.298 316.179 149.948C316.179 151.11 317.005 151.966 318.686 152.669L320.979 153.617C324.709 155.176 326.39 157.194 326.39 160.373C326.39 164.683 323.088 167.741 318.961 167.741C314.957 167.741 312.236 165.295 311.624 160.954L315.14 160.19C315.507 163.552 316.974 164.469 319.114 164.469C321.315 164.469 322.874 162.849 322.874 160.618C322.874 158.844 321.927 157.652 319.603 156.704L317.372 155.787C314.192 154.473 312.633 152.486 312.633 149.918C312.633 146.433 315.751 143.804 319.573 143.804C322.232 143.804 324.311 145.118 325.809 147.686Z" fill="#FE414D"/>
<path d="M345.395 147.533H340.107V167.313H336.652V147.533H331.333V144.262H345.395V147.533Z" fill="#FE414D"/>
<path d="M351.247 144.262H354.732V158.141C354.732 162.972 357.025 164.469 359.777 164.469C362.528 164.469 364.851 162.972 364.851 158.141V144.262H368.306V159.089C368.306 164.347 364.393 167.741 359.777 167.741C355.16 167.741 351.247 164.347 351.247 159.089V144.262Z" fill="#FE414D"/>
<path d="M380.083 147.533V164.042H381.643C384.455 164.042 386.687 163.43 388.154 162.146C389.988 160.526 390.936 158.355 390.936 155.787C390.936 151.079 387.971 147.533 381.643 147.533H380.083ZM376.598 167.313V144.262H381.459C383.691 144.262 385.495 144.537 386.931 144.965C391.578 146.341 394.421 150.743 394.421 155.787C394.421 159.334 393.198 162.207 390.722 164.378C388.154 166.64 385.984 167.313 381.398 167.313H376.598Z" fill="#FE414D"/>
<path d="M401.532 144.262H405.017V167.313H401.532V144.262Z" fill="#FE414D"/>
<path d="M415.653 155.726C415.653 160.832 419.749 164.469 424.121 164.469C428.921 164.469 432.742 160.679 432.742 155.787C432.742 150.835 428.951 147.105 424.213 147.105C419.566 147.105 415.653 150.896 415.653 155.726ZM412.168 155.696C412.168 149.215 417.671 143.834 424.274 143.834C430.785 143.834 436.258 149.306 436.258 155.818C436.258 162.421 430.724 167.741 424.09 167.741C417.762 167.741 412.168 162.605 412.168 155.696Z" fill="#FE414D"/>
</svg>
